#define down_width 16
#define down_height 16
static unsigned char down_bits[] = {
   0x00, 0x00, 0x00, 0x01, 0x00, 0x01, 0x00, 0x01, 0x00, 0x01, 0x00, 0x01,
   0x00, 0x01, 0x00, 0x01, 0x00, 0x01, 0x08, 0x21, 0x10, 0x11, 0x20, 0x09,
   0x40, 0x05, 0x80, 0x03, 0x00, 0x01, 0x00, 0x00};
