#define center_width 16
#define center_height 16
static unsigned char center_bits[] = {
   0x01, 0x80, 0x02, 0x40, 0x04, 0x20, 0x28, 0x14, 0x30, 0x0c, 0x38, 0x1c,
   0x00, 0x00, 0x80, 0x01, 0x80, 0x01, 0x00, 0x00, 0x38, 0x1c, 0x30, 0x0c,
   0x28, 0x14, 0x04, 0x20, 0x02, 0x40, 0x01, 0x80};
