#define start_width 16
#define start_height 16
static unsigned char start_bits[] = {
   0x00, 0x00, 0x00, 0x00, 0x30, 0x00, 0x70, 0x00, 0xf0, 0x00, 0xf0, 0x01,
   0xf0, 0x03, 0xf0, 0x07, 0xf0, 0x07, 0xf0, 0x03, 0xf0, 0x01, 0xf0, 0x00,
   0x70, 0x00, 0x30, 0x00, 0x00, 0x00, 0x00, 0x00};
