#define unzoom_width 16
#define unzoom_height 16
static unsigned char unzoom_bits[] = {
   0x80, 0x00, 0x70, 0x07, 0x08, 0x08, 0x04, 0x10, 0x02, 0x20, 0x02, 0x20,
   0x02, 0x20, 0xf1, 0x47, 0x02, 0x20, 0x02, 0x20, 0x02, 0x20, 0x04, 0x10,
   0x08, 0x18, 0x70, 0x27, 0x80, 0x40, 0x00, 0x80};
