#define left_width 16
#define left_height 16
static unsigned char left_bits[] = {
   0x00, 0x00, 0x00, 0x00, 0x00, 0x00, 0x40, 0x00, 0x20, 0x00, 0x10, 0x00,
   0x08, 0x00, 0x04, 0x00, 0xfe, 0x7f, 0x04, 0x00, 0x08, 0x00, 0x10, 0x00,
   0x20, 0x00, 0x40, 0x00, 0x00, 0x00, 0x00, 0x00};
