#define right_width 16
#define right_height 16
static unsigned char right_bits[] = {
   0x00, 0x00, 0x00, 0x00, 0x00, 0x02, 0x00, 0x04, 0x00, 0x08, 0x00, 0x10,
   0x00, 0x20, 0xfe, 0x7f, 0x00, 0x20, 0x00, 0x10, 0x00, 0x08, 0x00, 0x04,
   0x00, 0x02, 0x00, 0x00, 0x00, 0x00, 0x00, 0x00};
