#define up_width 16
#define up_height 16
static unsigned char up_bits[] = {
   0x00, 0x00, 0x80, 0x00, 0xc0, 0x01, 0xa0, 0x02, 0x90, 0x04, 0x88, 0x08,
   0x84, 0x10, 0x80, 0x00, 0x80, 0x00, 0x80, 0x00, 0x80, 0x00, 0x80, 0x00,
   0x80, 0x00, 0x80, 0x00, 0x80, 0x00, 0x00, 0x00};
